<svg width="26" height="25" viewBox="0 0 26 25" fill="none" xmlns="http://www.w3.org/2000/svg">
<path d="M21.6219 0H3.67183C2.73926 0 1.84486 0.370722 1.18542 1.03061C0.525985 1.69052 0.155518 2.58552 0.155518 3.51875V21.4812C0.155518 22.4145 0.525985 23.3095 1.18542 23.9694C1.84486 24.6292 2.73926 25 3.67183 25H11.8412V15.875H8.75268V12.3156H11.8412V9.69376C11.8412 8.20782 12.2518 7.05313 13.0731 6.23282C13.8944 5.41094 15.0077 4.99844 16.4145 4.99844C17.8229 4.99844 18.7348 5.05313 19.1517 5.15626V8.32501H17.2749C16.5972 8.32501 16.135 8.46876 15.8868 8.75626C15.6401 9.04219 15.5167 9.47344 15.5167 10.0469V12.3156H19.0346L18.5662 15.875H15.5167V25H21.6219C22.5545 25 23.4489 24.6292 24.1083 23.9694C24.7678 23.3095 25.1382 22.4145 25.1382 21.4812V3.51875C25.1382 2.58552 24.7678 1.69052 24.1083 1.03061C23.4489 0.370722 22.5545 0 21.6219 0Z" fill="#979797"/>
</svg>
