<svg width="20" height="15" viewBox="0 0 20 15" fill="none" xmlns="http://www.w3.org/2000/svg">
<path d="M17.7027 7.72466C19.6566 5.95615 19.6566 3.08052 17.7027 1.32638C15.7488 -0.442128 12.5718 -0.442128 10.6179 1.32638L9.66475 2.18907L8.71164 1.32638C6.75776 -0.442128 3.58071 -0.442128 1.64272 1.32638C0.689602 2.17469 0.181274 3.32495 0.181274 4.53271C0.181274 5.74047 0.705487 6.87635 1.64272 7.73904L9.66475 15L17.7027 7.72466ZM1.43621 4.53271C1.43621 3.62689 1.81745 2.77858 2.53229 2.14594C3.26301 1.48454 4.21612 1.15385 5.16924 1.15385C6.12235 1.15385 7.07546 1.48454 7.80618 2.14594L9.66475 3.8138L11.5233 2.13156C12.9848 0.808771 15.3517 0.808771 16.7972 2.13156C17.4962 2.7642 17.8933 3.61251 17.8933 4.51833C17.8933 5.42416 17.5121 6.27247 16.7972 6.9051L9.66475 13.3753L2.53229 6.91948C1.83334 6.27247 1.43621 5.42416 1.43621 4.53271Z" fill="black"/>
</svg>
