<svg width="26" height="25" viewBox="0 0 26 25" fill="none" xmlns="http://www.w3.org/2000/svg">
<path fill-rule="evenodd" clip-rule="evenodd" d="M22.1075 0C23.7921 0 25.1598 1.36865 25.1598 3.05439V21.9456C25.1598 23.6313 23.7921 25 22.1075 25H3.2294C1.54483 25 0.177124 23.6313 0.177124 21.9456V3.05439C0.177124 1.36865 1.54478 0 3.2294 0L22.1075 0ZM12.6685 3.95508C10.3494 3.95508 10.0586 3.96489 9.14785 4.00649C8.23896 4.048 7.61825 4.19243 7.07507 4.40371C6.51355 4.62207 6.03736 4.91426 5.56265 5.38926C5.08793 5.86431 4.79594 6.34087 4.57773 6.90273C4.36665 7.44629 4.22232 8.06743 4.18079 8.97695C4.13927 9.88833 4.12946 10.1793 4.12946 12.5C4.12946 14.8207 4.13927 15.1117 4.18079 16.023C4.22232 16.9326 4.36665 17.5537 4.57773 18.0973C4.79594 18.6591 5.08793 19.1357 5.56265 19.6107C6.03736 20.0858 6.51355 20.378 7.07507 20.5963C7.61825 20.8076 8.23896 20.952 9.14785 20.9935C10.0586 21.0351 10.3494 21.0449 12.6685 21.0449C14.9875 21.0449 15.2783 21.0351 16.1891 20.9935C17.098 20.952 17.7187 20.8076 18.2618 20.5963C18.8233 20.378 19.2996 20.0858 19.7743 19.6107C20.249 19.1357 20.541 18.6591 20.7592 18.0973C20.9703 17.5537 21.1146 16.9326 21.1561 16.023C21.1976 15.1117 21.2075 14.8207 21.2075 12.5C21.2075 10.1793 21.1976 9.88833 21.1561 8.97695C21.1146 8.06743 20.9703 7.44629 20.7592 6.90273C20.541 6.34087 20.249 5.86431 19.7743 5.38926C19.2996 4.91426 18.8233 4.62207 18.2618 4.40371C17.7187 4.19243 17.098 4.048 16.1891 4.00649C15.2783 3.96489 14.9875 3.95508 12.6685 3.95508ZM12.6685 5.49473C14.9485 5.49473 15.2185 5.50342 16.1189 5.54453C16.9515 5.58257 17.4036 5.72178 17.7045 5.83872C18.1031 5.99375 18.3875 6.17895 18.6864 6.47793C18.9852 6.77695 19.1702 7.06162 19.3251 7.46045C19.442 7.76157 19.5811 8.21401 19.6191 9.04712C19.6602 9.94814 19.6689 10.2184 19.6689 12.5C19.6689 14.7816 19.6602 15.0519 19.6191 15.9529C19.5811 16.786 19.442 17.2384 19.3251 17.5396C19.1702 17.9384 18.9852 18.223 18.6864 18.5221C18.3875 18.8211 18.1031 19.0063 17.7045 19.1613C17.4036 19.2783 16.9515 19.4175 16.1189 19.4555C15.2187 19.4966 14.9486 19.5053 12.6685 19.5053C10.3883 19.5053 10.1183 19.4966 9.21797 19.4555C8.38544 19.4175 7.93331 19.2783 7.6324 19.1613C7.2338 19.0063 6.94938 18.8211 6.65056 18.5221C6.35175 18.223 6.16667 17.9384 6.0118 17.5396C5.89489 17.2384 5.75577 16.786 5.71776 15.9529C5.67668 15.0519 5.66799 14.7816 5.66799 12.5C5.66799 10.2184 5.67668 9.94814 5.71776 9.04712C5.75577 8.21401 5.89489 7.76157 6.0118 7.46045C6.16667 7.06162 6.35175 6.77695 6.65056 6.47793C6.94938 6.17895 7.2338 5.99375 7.6324 5.83872C7.93331 5.72178 8.38544 5.58257 9.21797 5.54453C10.1184 5.50342 10.3884 5.49473 12.6685 5.49473ZM12.6685 8.11206C10.2467 8.11206 8.28356 10.0766 8.28356 12.5C8.28356 14.9234 10.2467 16.8879 12.6685 16.8879C15.0902 16.8879 17.0534 14.9234 17.0534 12.5C17.0534 10.0766 15.0902 8.11206 12.6685 8.11206ZM12.6685 15.3483C11.0965 15.3483 9.82214 14.0731 9.82214 12.5C9.82214 10.9269 11.0965 9.65171 12.6685 9.65171C14.2405 9.65171 15.5148 10.9269 15.5148 12.5C15.5148 14.0731 14.2405 15.3483 12.6685 15.3483ZM18.2513 7.93872C18.2513 8.50503 17.7925 8.96406 17.2266 8.96406C16.6607 8.96406 16.2019 8.50503 16.2019 7.93872C16.2019 7.37241 16.6607 6.91333 17.2266 6.91333C17.7925 6.91333 18.2513 7.37241 18.2513 7.93872Z" fill="#979797"/>
</svg>
