<svg width="16" height="8" viewBox="0 0 16 8" fill="none" xmlns="http://www.w3.org/2000/svg">
<mask id="path-1-inside-1_140_92" fill="white">
<path d="M15.03 0L16 0.8625L8 8L0 0.8625L0.965 0L8 6.27083L15.03 0Z"/>
</mask>
<path d="M15.03 0L16 0.8625L8 8L0 0.8625L0.965 0L8 6.27083L15.03 0Z" fill="#FDDE01"/>
<path d="M15.03 0L21.6748 -7.47303L15.0194 -13.3909L8.37336 -7.46251L15.03 0ZM16 0.8625L22.6574 8.32436L31.0351 0.849873L22.6448 -6.61053L16 0.8625ZM8 8L1.34262 15.4619L8 21.4015L14.6574 15.4619L8 8ZM0 0.8625L-6.66399 -6.59345L-15.0135 0.86916L-6.65738 8.32436L0 0.8625ZM0.965 0L7.61901 -7.46487L0.956027 -13.4041L-5.69899 -7.45595L0.965 0ZM8 6.27083L1.34599 13.7357L8.00237 19.669L14.6566 13.7333L8 6.27083ZM8.38517 7.47303L9.35517 8.33553L22.6448 -6.61053L21.6748 -7.47303L8.38517 7.47303ZM9.34262 -6.59936L1.34262 0.538142L14.6574 15.4619L22.6574 8.32436L9.34262 -6.59936ZM14.6574 0.538142L6.65738 -6.59936L-6.65738 8.32436L1.34262 15.4619L14.6574 0.538142ZM6.66399 8.31845L7.62899 7.45595L-5.69899 -7.45595L-6.66399 -6.59345L6.66399 8.31845ZM-5.68901 7.46487L1.34599 13.7357L14.654 -1.19403L7.61901 -7.46487L-5.68901 7.46487ZM14.6566 13.7333L21.6866 7.46251L8.37336 -7.46251L1.34336 -1.19168L14.6566 13.7333Z" fill="#FDDE01" mask="url(#path-1-inside-1_140_92)"/>
</svg>
