<svg width="31" height="30" viewBox="0 0 31 30" fill="none" xmlns="http://www.w3.org/2000/svg">
<path d="M0.0639726 14.6406C-0.00708145 17.6064 0.802332 20.5268 2.38986 23.0323C3.97738 25.5378 6.27172 27.516 8.98273 28.7167C11.6937 29.9174 14.6997 30.2866 17.6204 29.7777C20.5411 29.2689 23.2454 27.9047 25.3914 25.8578C27.5374 23.8109 29.0286 21.1732 29.6765 18.2782C30.3244 15.3832 30.0999 12.3609 29.0313 9.59362C27.9628 6.82632 26.0982 4.43824 23.6733 2.73137C21.2485 1.02451 18.3723 0.0755224 15.4085 0.00441918C13.4402 -0.0444271 11.4816 0.295573 9.6447 1.00496C7.80783 1.71436 6.12876 2.77922 4.70356 4.13863C3.27836 5.49804 2.13499 7.12531 1.33888 8.92735C0.542771 10.7294 0.109539 12.6708 0.0639726 14.6406ZM26.5086 15.275C26.4543 17.543 25.7291 19.744 24.4247 21.5995C23.1204 23.4551 21.2955 24.882 19.1807 25.6997C17.066 26.5173 14.7565 26.6892 12.5442 26.1934C10.3319 25.6976 8.31622 24.5564 6.75202 22.9143C5.18783 21.2721 4.14538 19.2026 3.75651 16.9676C3.36764 14.7326 3.64981 12.4323 4.56734 10.3578C5.48487 8.28319 6.99655 6.52749 8.91122 5.31266C10.8259 4.09783 13.0575 3.47844 15.324 3.53281C16.8298 3.56591 18.3142 3.89624 19.6921 4.50484C21.07 5.11344 22.3142 5.98833 23.3534 7.07931C24.3926 8.17029 25.2062 9.45588 25.7477 10.8623C26.2891 12.2687 26.5477 13.7683 26.5086 15.275ZM12.2608 9.90233L17.0767 15.0487L11.9317 19.9561C11.602 20.2771 11.4122 20.7152 11.4035 21.1754C11.3948 21.6357 11.5679 22.0807 11.8853 22.4139C12.2026 22.7471 12.6386 22.9415 13.0983 22.9548C13.5581 22.9682 14.0046 22.7994 14.3407 22.4852L19.4857 17.5778C19.8284 17.2585 20.1039 16.8739 20.2959 16.4465C20.4879 16.0191 20.5926 15.5576 20.6038 15.0892C20.615 14.6208 20.5326 14.1548 20.3612 13.7187C20.1899 13.2826 19.9332 12.8852 19.6061 12.5498L14.7021 7.40135C14.5469 7.23036 14.3586 7.09269 14.1487 6.99667C13.9387 6.90065 13.7115 6.84828 13.4807 6.84275C13.2499 6.83721 13.0204 6.87862 12.8061 6.96446C12.5918 7.0503 12.3972 7.17879 12.2339 7.34214C11.5979 8.12122 11.5704 9.26795 12.2608 9.90233Z" fill="#6B6161" fill-opacity="0.59"/>
</svg>
