<svg width="18" height="18" viewBox="0 0 18 18" fill="none" xmlns="http://www.w3.org/2000/svg">
<path d="M2.16162 1.44014L2.16182 1.43994L2.53121 1.07072C2.62536 0.975815 2.73744 0.900558 2.86094 0.849337C2.98435 0.798159 3.11668 0.772005 3.25027 0.772393M2.16162 1.44014L1.23147 6.3455C1.73953 8.45285 3.03665 10.6094 4.85905 12.4327C6.68153 14.256 8.83618 15.5526 10.9423 16.0627L10.9426 16.0628C12.9219 16.5408 14.7043 16.2732 15.8449 15.1319L16.2147 14.7618L16.2148 14.7616C16.4051 14.5711 16.5119 14.3128 16.5119 14.0436C16.5119 13.7743 16.4051 13.5161 16.2148 13.3255L16.2147 13.3254L14.0903 11.1991L14.0901 11.1989C13.8997 11.0085 13.6414 10.9015 13.3721 10.9015C13.1027 10.9015 12.8444 11.0085 12.654 11.1989L12.6539 11.1991L11.063 12.791L11.0629 12.7911C11.0424 12.8116 11.0161 12.825 10.9876 12.8294C10.9591 12.8339 10.9299 12.8291 10.9043 12.8158L10.9043 12.8158C9.65169 12.1677 8.37783 11.2177 7.22593 10.065C6.07431 8.91262 5.12689 7.63866 4.47728 6.38468C4.46395 6.35891 4.45914 6.32952 4.46358 6.30078C4.46802 6.27213 4.48141 6.24568 4.50177 6.22522C4.50178 6.22522 4.50178 6.22521 4.50179 6.22521C4.50184 6.22515 4.50189 6.2251 4.50194 6.22505L6.09307 4.63325L6.09325 4.63307C6.28353 4.44251 6.39034 4.18422 6.39034 3.91499C6.39034 3.64576 6.28353 3.38748 6.09325 3.19692L6.09315 3.19682L3.96931 1.07108C3.96912 1.0709 3.96894 1.07071 3.96875 1.07053C3.87444 0.975744 3.76227 0.900585 3.63873 0.849407C3.51558 0.798393 3.38356 0.77222 3.25027 0.772393M2.16162 1.44014C1.02117 2.58137 0.753841 4.36551 1.23145 6.34543L2.16162 1.44014ZM3.25027 0.772393C3.25096 0.772395 3.25165 0.772398 3.25235 0.772401L3.24986 1.27239L3.25027 0.772393ZM10.882 16.3295L10.8788 16.3287C8.7608 15.8174 6.54951 14.5103 4.66866 12.6265C2.78744 10.7423 1.47955 8.52884 0.968541 6.41143L0.968515 6.41132C0.430038 4.1823 0.835262 2.38176 1.96941 1.24683L2.33889 0.877094C2.33894 0.877047 2.33898 0.877 2.33903 0.876953C2.58085 0.635526 2.90842 0.5 3.24986 0.5C3.59138 0.5 3.91901 0.635579 4.16084 0.877094L6.28555 3.00285C6.52702 3.24474 6.66271 3.57273 6.66271 3.91478C6.66271 4.25683 6.52702 4.58482 6.28555 4.82671L5.03041 6.08229L4.76087 6.35193L4.94954 6.68322C5.57591 7.7831 6.42289 8.87578 7.41813 9.87172C8.41341 10.8677 9.50618 11.7157 10.6048 12.3424L10.9365 12.5316L11.2063 12.2615L12.4613 11.0053L12.1076 10.6519L12.4613 11.0053C12.5809 10.8855 12.7229 10.7906 12.8791 10.7258C13.0353 10.661 13.2028 10.6277 13.3719 10.6277C13.541 10.6277 13.7084 10.661 13.8646 10.7258C14.0209 10.7906 14.1628 10.8855 14.2824 11.0053L14.2825 11.0053L16.4072 13.1315C16.4073 13.1316 16.4073 13.1316 16.4073 13.1316C16.6487 13.3734 16.7844 13.7012 16.7844 14.0431C16.7844 14.3851 16.6487 14.713 16.4072 14.9548L16.0373 15.3246L16.0367 15.3251C15.2341 16.1298 14.1069 16.5627 12.7312 16.563C12.1078 16.5583 11.4871 16.4799 10.882 16.3295Z" fill="black" stroke="black"/>
</svg>
