<svg width="31" height="30" viewBox="0 0 31 30" fill="none" xmlns="http://www.w3.org/2000/svg">
<path d="M30.9416 15C30.9416 12.0333 30.0625 9.13319 28.4154 6.66645C26.7684 4.19971 24.4273 2.27713 21.6883 1.14181C18.9493 0.00649871 15.9354 -0.290551 13.0277 0.288227C10.1201 0.867005 7.44917 2.29562 5.35283 4.3934C3.2565 6.49119 1.82889 9.16393 1.25051 12.0736C0.672134 14.9834 0.968978 17.9994 2.1035 20.7402C3.23803 23.4811 5.15928 25.8238 7.6243 27.472C10.0893 29.1203 12.9874 30 15.9521 30C17.921 30.0016 19.8709 29.6147 21.6902 28.8615C23.5096 28.1083 25.1627 27.0034 26.5549 25.6102C27.9472 24.217 29.0512 22.5628 29.8039 20.7422C30.5567 18.9216 30.9433 16.9703 30.9416 15ZM4.48945 15C4.48945 12.7313 5.16172 10.5136 6.42125 8.62728C7.68078 6.74096 9.47099 5.27074 11.5655 4.40256C13.66 3.53438 15.9648 3.30723 18.1883 3.74982C20.4118 4.19242 22.4543 5.28488 24.0574 6.88907C25.6604 8.49326 26.7521 10.5371 27.1944 12.7622C27.6367 14.9873 27.4097 17.2936 26.5421 19.3896C25.6746 21.4856 24.2054 23.277 22.3204 24.5374C20.4353 25.7978 18.2192 26.4706 15.9521 26.4706C14.4459 26.4736 12.954 26.179 11.5619 25.6036C10.1699 25.0282 8.90504 24.1834 7.84003 23.1177C6.77503 22.0519 5.93081 20.7862 5.35583 19.3932C4.78085 18.0001 4.48643 16.5072 4.48945 15ZM18.8618 20.0294L13.9241 15L18.95 9.97059C19.2719 9.64184 19.4512 9.19924 19.4489 8.73895C19.4466 8.27867 19.2628 7.83789 18.9376 7.51242C18.6123 7.18694 18.1719 7.00306 17.7119 7.00074C17.2519 6.99841 16.8096 7.17783 16.4811 7.5L11.4552 12.5294C11.1202 12.8568 10.854 13.248 10.6723 13.6798C10.4906 14.1117 10.397 14.5755 10.397 15.0441C10.397 15.5127 10.4906 15.9766 10.6723 16.4084C10.854 16.8403 11.1202 17.2314 11.4552 17.5588L16.4811 22.5882C16.6404 22.7555 16.8319 22.8886 17.0441 22.9795C17.2563 23.0705 17.4847 23.1174 17.7155 23.1174C17.9464 23.1174 18.1748 23.0705 18.387 22.9795C18.5992 22.8886 18.7907 22.7555 18.95 22.5882C19.5672 21.7941 19.5672 20.6471 18.8618 20.0294Z" fill="#6B6161" fill-opacity="0.59"/>
</svg>
