<svg width="67" height="69" viewBox="0 0 67 69" fill="none" xmlns="http://www.w3.org/2000/svg">
<path d="M66.0298 12.0445L54.3382 0.344754C54.1163 0.123944 53.816 0 53.5031 0C53.1901 0 52.8899 0.123944 52.668 0.344754L50.9976 2.01612C50.777 2.23822 50.6531 2.53865 50.6531 2.85182C50.6531 3.16498 50.777 3.46542 50.9976 3.68751L55.1732 7.86614L46.8219 16.2231L38.4705 7.86614C38.2486 7.64526 37.9484 7.52128 37.6354 7.52128C37.3224 7.52128 37.0222 7.64526 36.8003 7.86614L35.13 9.53723C34.9094 9.75937 34.7855 10.0599 34.7855 10.3731C34.7855 10.6863 34.9094 10.9868 35.13 11.2089L55.1732 31.2658C55.3951 31.4867 55.6954 31.6106 56.0084 31.6106C56.3213 31.6106 56.6216 31.4867 56.8435 31.2658L58.5138 29.5944C58.7344 29.3724 58.8583 29.0719 58.8583 28.7588C58.8583 28.4456 58.7344 28.1451 58.5138 27.9231L50.1625 19.5661L58.5138 11.2088L62.6894 15.3872C62.9112 15.6081 63.2114 15.7321 63.5244 15.7322C63.8374 15.7322 64.1377 15.6083 64.3596 15.3875L66.03 13.7161C66.2506 13.4939 66.3744 13.1934 66.3743 12.8802C66.3743 12.5671 66.2505 12.2666 66.0298 12.0445Z" fill="black"/>
<path d="M10.8277 52.0753L11.3812 52.629L0.420105 63.5976V68.4031L13.7821 55.0317L14.3352 55.5851L18.2979 52.9416L13.4694 48.1099L10.8277 52.0753Z" fill="black"/>
<path d="M33.6182 19.4072L36.5728 22.3639C36.8359 22.6283 37.0101 22.9681 37.0711 23.3362C37.1322 23.7042 37.0772 24.0821 36.9136 24.4174C36.9058 24.4376 36.8924 24.4546 36.8834 24.4745C36.8289 24.5774 36.7645 24.6746 36.691 24.7649C36.6597 24.8199 36.6246 24.8726 36.586 24.9228C36.5359 24.9616 36.4831 24.9967 36.4279 25.028C36.3379 25.1013 36.2409 25.1658 36.1384 25.2204C36.1185 25.2292 36.1012 25.2429 36.081 25.2509C35.7459 25.4145 35.3682 25.4695 35.0005 25.4083C34.6327 25.3471 34.2931 25.1728 34.0289 24.9096L31.0743 21.9532L26.3806 26.6501L29.335 29.6067C29.5981 29.8711 29.7722 30.2108 29.8333 30.5788C29.8944 30.9468 29.8394 31.3247 29.6759 31.6599C29.6679 31.6804 29.6543 31.698 29.6452 31.7182C29.5909 31.8204 29.5268 31.917 29.4537 32.0068C29.4223 32.062 29.387 32.1151 29.3484 32.1656C29.2979 32.2044 29.2448 32.2396 29.1895 32.271C29.0998 32.3443 29.0032 32.4086 28.9009 32.4629C28.8809 32.4719 28.8633 32.4854 28.8428 32.4937C28.5078 32.6572 28.1302 32.7122 27.7625 32.651C27.3948 32.5899 27.0552 32.4156 26.7911 32.1524L23.8367 29.1957L19.1427 33.8932L22.097 36.8496C22.36 37.1138 22.5342 37.4536 22.5954 37.8216C22.6565 38.1895 22.6016 38.5674 22.4382 38.9027C22.4303 38.9232 22.4164 38.9408 22.4073 38.961C22.3531 39.0632 22.2889 39.1599 22.2158 39.2496C22.1844 39.305 22.1492 39.3581 22.1104 39.4087C22.06 39.4473 22.007 39.4825 21.9517 39.5138C21.8619 39.587 21.7653 39.6514 21.6631 39.706C21.6429 39.7148 21.6256 39.7285 21.6053 39.7365C21.2702 39.9001 20.8925 39.9552 20.5248 39.8941C20.157 39.833 19.8174 39.6587 19.5532 39.3955L16.5989 36.4388L14.0991 38.9402C13.4752 39.5646 13.1247 40.4114 13.1247 41.2944C13.1247 42.1773 13.4752 43.0241 14.0991 43.6485L22.756 52.3117C23.065 52.6209 23.4318 52.8661 23.8354 53.0334C24.2391 53.2007 24.6717 53.2869 25.1087 53.2869C25.5456 53.2869 25.9782 53.2007 26.3819 53.0334C26.7856 52.8661 27.1524 52.6209 27.4613 52.3117L49.289 30.4687L35.9268 17.0972L33.6182 19.4072Z" fill="black"/>
</svg>
