<svg width="65" height="69" viewBox="0 0 65 69" fill="none" xmlns="http://www.w3.org/2000/svg">
<path d="M49.165 34.2359H47.2588V30.3154C51.5255 28.6307 54.5086 24.8402 54.5086 20.4422V15.848V13.5546C54.5086 9.87709 52.4226 6.6246 49.2456 4.67195C48.4016 1.98119 45.613 0 42.3104 0C39.0079 0 36.2193 1.98119 35.3753 4.67195C32.1981 6.6246 30.112 9.87709 30.112 13.5546V15.848V20.4422C30.112 24.8402 33.0952 28.6307 37.3621 30.3154V34.2359H35.4559C26.8341 34.2359 19.82 40.4495 19.82 48.087V50.2972H16.722V41.3745H15.5645C14.3096 41.3745 13.1073 41.5772 11.9956 41.9458V41.3745H10.8381C5.20721 41.3745 0.626404 45.4325 0.626404 50.4206L0.63007 69H19.6765C20.3091 69 20.9345 68.9727 21.5524 68.9212H64.8008V48.087C64.8006 40.4495 57.7868 34.2359 49.165 34.2359ZM49.4017 7.46507C50.922 8.85411 51.9293 10.6856 52.1476 12.7186C50.8312 11.9825 49.0689 11.4418 47.1326 11.1069C48.3022 10.1703 49.1221 8.89871 49.4017 7.46507ZM37.4524 5.93452C37.5059 5.46866 37.6446 5.02519 37.8521 4.61453C38.1396 4.04647 38.5605 3.54301 39.0804 3.13594C39.9422 2.46141 41.0729 2.05075 42.3103 2.05075C43.5476 2.05075 44.6783 2.46124 45.5397 3.13594C46.0596 3.54318 46.4809 4.04647 46.7684 4.61453C46.9759 5.02502 47.1146 5.46866 47.1681 5.93452C47.1851 6.08013 47.1934 6.22761 47.1934 6.3768C47.1934 8.76216 45.0028 10.7027 42.3101 10.7027C39.6171 10.7027 37.4266 8.76216 37.4266 6.3768C37.427 6.22744 37.4356 6.07996 37.4524 5.93452ZM35.2188 7.46507C35.4988 8.89888 36.3187 10.1703 37.4883 11.107C35.552 11.442 33.7897 11.9827 32.4731 12.7187C32.6916 10.6854 33.6985 8.85411 35.2188 7.46507ZM32.427 20.442V15.8478C32.427 14.5861 36.2772 12.7534 42.3104 12.7534C48.3437 12.7534 52.1936 14.5863 52.1936 15.8478V20.442C52.1936 23.673 50.2059 26.4987 47.2588 28.0158C46.8872 28.207 46.5014 28.3786 46.1013 28.5263C45.7268 28.6648 45.3398 28.7819 44.9438 28.879C44.1046 29.0847 43.2222 29.197 42.3104 29.197C41.3987 29.197 40.5161 29.0847 39.6771 28.879C39.2811 28.7819 38.8941 28.6647 38.5196 28.5263C38.1195 28.3786 37.7337 28.207 37.3621 28.0158C34.4144 26.4989 32.427 23.673 32.427 20.442ZM44.9438 30.9916V34.2359H39.6769V30.9916C40.5254 31.1577 41.4061 31.2481 42.3103 31.2481C43.2145 31.2481 44.0953 31.1575 44.9438 30.9916ZM11.9956 44.1824C12.7396 43.8469 13.551 43.6119 14.407 43.5V50.297H11.9956V44.1824ZM20.9775 66.9024C20.5948 66.9272 20.2094 66.9431 19.82 66.946C19.772 66.9463 19.7248 66.9492 19.6765 66.9492H2.94507L2.9414 50.4206C2.9414 47.1944 5.42038 44.4727 8.77905 43.6683C9.07325 43.5977 9.37382 43.5403 9.68055 43.5001V44.3273V45.7621V52.3479H14.407H15.5647H16.722H19.82H20.9775H22.135H31.2826V57.7076H35.771C33.3313 62.5148 28.2291 66.0394 22.135 66.7956C21.7531 66.843 21.3667 66.877 20.9775 66.9024ZM33.5976 55.6568V52.3479H37.2792C37.1951 53.4888 36.968 54.595 36.6213 55.6568H33.5976ZM62.4856 66.8703H29.1649C33.3038 64.8804 36.5625 61.6313 38.2841 57.7076H38.3933V57.4531C39.1935 55.5421 39.6314 53.4769 39.6314 51.3225V50.2972H22.1349V48.087C22.1349 41.5803 28.1106 36.2866 35.4557 36.2866H37.3619H38.5194H39.6769H44.9438H46.1013H47.2588H49.165C56.5101 36.2866 62.4856 41.5803 62.4856 48.087V66.8703Z" fill="black"/>
<path d="M54.6341 43.2109H46.3601V46.4901H42.6584V53.8195H46.3601V57.0986H54.6341V53.8195H58.3358V46.4901H54.6341V43.2109ZM56.0206 48.5407V51.7686H52.3189V55.0477H48.6749V51.7686H44.9733V48.5407H48.6749V45.2615H52.3189V48.5407H56.0206Z" fill="black"/>
<path d="M10.3547 56.6345V57.6499H13.4414V56.6345V54.5115H10.3547V56.6345Z" fill="black"/>
<path d="M39.3767 25.9864C40.2377 26.437 41.2403 26.6968 42.3104 26.6968C43.3805 26.6968 44.3831 26.4368 45.2441 25.9864C46.9483 25.0938 48.0944 23.4501 48.0944 21.5728H45.7794C45.7794 23.2674 44.2234 24.646 42.3104 24.646C40.3974 24.646 38.841 23.2674 38.841 21.5728H36.526C36.526 23.4501 37.6725 25.0938 39.3767 25.9864Z" fill="black"/>
</svg>
