<svg width="22" height="19" viewBox="0 0 22 19" fill="none" xmlns="http://www.w3.org/2000/svg">
<path d="M0.819496 0.265747H3.33801C3.36181 0.265747 3.38203 0.276642 3.40517 0.279034C3.45347 0.28387 3.49862 0.291736 3.54388 0.306511C3.58177 0.318787 3.61597 0.333934 3.6505 0.352323C3.69023 0.373528 3.72606 0.396541 3.76069 0.425187C3.79256 0.451441 3.81961 0.479396 3.84595 0.510912C3.87311 0.543385 3.89631 0.576442 3.91691 0.61407C3.93821 0.652708 3.95317 0.692355 3.96623 0.735191C3.97333 0.758416 3.98867 0.777071 3.99323 0.801465L4.37466 2.84543L20.6741 3.77938C20.7365 3.77512 20.7916 3.78405 20.8614 3.79043C21.2235 3.82274 21.4923 4.13397 21.4654 4.48941C21.4633 4.5162 21.4598 4.54214 21.4546 4.56765L20.3189 10.6408C20.0592 11.5826 19.2591 12.5333 18.0558 12.5333H6.18267L6.43689 13.8955H16.4275C17.6924 13.8955 18.7219 14.9049 18.7219 16.1451C18.7219 17.3858 17.6924 18.3951 16.4275 18.3951C15.1626 18.3951 14.1332 17.3858 14.1332 16.1451C14.1332 15.8071 14.2151 15.4895 14.3519 15.2016H8.21704C8.35385 15.4895 8.43575 15.8071 8.43575 16.1451C8.43575 17.3858 7.40632 18.3951 6.14142 18.3951C4.87653 18.3951 3.84709 17.3858 3.84709 16.1451C3.84709 15.2632 4.37233 14.5059 5.12782 14.1373L2.7828 1.57188H0.819496C0.451778 1.57188 0.153442 1.27936 0.153442 0.918813C0.153442 0.558266 0.451778 0.265747 0.819496 0.265747ZM5.46225 8.67285L8.28474 8.71632L8.13102 7.11247L5.1547 7.02499L5.46225 8.67285ZM19.5629 7.44851L16.7424 7.3656L16.5579 8.84366L19.2945 8.88581L19.5629 7.44851ZM15.8514 7.3394L12.7512 7.24831V8.78504L15.6653 8.82995L15.8514 7.3394ZM12.7512 6.37676L15.9598 6.47109L16.1648 4.82939L12.7512 4.63371V6.37676ZM11.8632 4.58279L8.76358 4.40507L8.9418 6.26478L11.8632 6.35066V4.58279ZM12.7512 9.65601V11.2271H15.366L15.5568 9.69922L12.7512 9.65601ZM11.8632 9.64235L9.26165 9.60233L9.41738 11.2271H11.8632V9.64235ZM11.8632 8.77138V7.22221L9.02554 7.13877L9.17807 8.73004L11.8632 8.77138ZM4.99117 6.14865L8.04728 6.23847L7.86667 4.35368L4.62144 4.16761L4.99117 6.14865ZM17.0528 4.88031L16.8509 6.49724L19.7248 6.58174C19.8459 5.93665 19.9423 5.43532 20.0245 5.05064L17.0528 4.88031ZM19.0206 10.353L19.1324 9.75428L16.4493 9.71298L16.2603 11.2271H18.0558C18.6265 11.2271 18.9443 10.6208 19.0206 10.353ZM8.52535 11.2271L8.36832 9.58857L5.62524 9.54631L5.93892 11.2271H8.52535ZM15.4653 16.1451C15.4653 16.6655 15.8968 17.089 16.4275 17.089C16.9583 17.089 17.3898 16.6655 17.3898 16.1451C17.3898 15.6247 16.9583 15.2016 16.4275 15.2016C15.8968 15.2016 15.4653 15.6247 15.4653 16.1451ZM6.14142 17.089C6.67218 17.089 7.10365 16.6655 7.10365 16.1451C7.10365 15.6247 6.67218 15.2016 6.14142 15.2016C5.61066 15.2016 5.1792 15.6247 5.1792 16.1451C5.1792 16.6655 5.61066 17.089 6.14142 17.089Z" fill="#050505"/>
</svg>
