<svg width="29" height="16" viewBox="0 0 29 16" fill="none" xmlns="http://www.w3.org/2000/svg">
<path d="M4.13164 7.78243V13.5319C4.13164 13.8243 4.41272 14.0669 4.75167 14.0669H6.82671C7.16566 15.1797 8.33132 16 9.72019 16C11.1091 16 12.283 15.1797 12.6137 14.0669H20.6079C20.9469 15.1797 22.1126 16 23.5014 16C24.8903 16 26.0642 15.1797 26.3949 14.0669H27.9326C28.2715 14.0669 28.5526 13.8243 28.5526 13.5319V8.48863C28.5526 8.3745 28.5113 8.2675 28.4369 8.1819L26.2874 5.56398C26.1717 5.42131 25.9815 5.33571 25.7831 5.33571H21.3024V3.65225C21.3024 3.35979 21.0213 3.11725 20.6823 3.11725H9.25723C8.82734 1.34106 7.00032 0 4.8178 0C2.31288 0 0.279175 1.75479 0.279175 3.91618C0.279175 5.87071 1.95739 7.4971 4.13164 7.78243ZM9.72019 14.93C8.75294 14.93 7.96757 14.2523 7.96757 13.4177C7.96757 12.5831 8.75294 11.9055 9.72019 11.9055C10.6874 11.9055 11.4728 12.5831 11.4728 13.4177C11.4728 14.2523 10.6792 14.93 9.72019 14.93ZM23.5014 14.93C22.5342 14.93 21.7488 14.2523 21.7488 13.4177C21.7488 12.5831 22.5342 11.9055 23.5014 11.9055C24.4687 11.9055 25.254 12.5831 25.254 13.4177C25.254 14.2523 24.4687 14.93 23.5014 14.93ZM27.3125 8.66696V8.75256H23.9396V6.41284H25.4607L27.3125 8.66696ZM22.6995 6.41284V9.28756C22.6995 9.58003 22.9806 9.82256 23.3195 9.82256H27.3125V12.9969H26.4528C26.2213 11.77 24.9812 10.8355 23.5014 10.8355C22.6334 10.8355 21.848 11.1565 21.3024 11.6701V6.41284H22.6995ZM20.0623 13.004H12.6715C12.4401 11.7771 11.2 10.8426 9.72019 10.8426C8.24038 10.8426 7.00032 11.7771 6.76884 13.004H5.3717V7.80383C7.51288 7.57557 9.19109 6.06331 9.3399 4.19438H20.0623V13.004ZM4.8178 1.07713C6.63656 1.07713 8.11637 2.35399 8.11637 3.92332C8.11637 5.49264 6.63656 6.7695 4.8178 6.7695C2.99905 6.7695 1.51924 5.49264 1.51924 3.92332C1.51924 2.35399 2.99905 1.07713 4.8178 1.07713Z" fill="white"/>
</svg>
