<svg width="26" height="25" viewBox="0 0 26 25" fill="none" xmlns="http://www.w3.org/2000/svg">
<path d="M21.9931 25H3.25613C1.53233 25 0.133301 23.6 0.133301 21.875V3.125C0.133301 1.4 1.53233 0 3.25613 0H21.9931C23.7169 0 25.116 1.4 25.116 3.125V21.875C25.116 23.6 23.7169 25 21.9931 25ZM9.72664 18.85C15.6163 18.85 18.8391 13.9625 18.8391 9.73125C18.8391 9.59375 18.8391 9.45625 18.8328 9.31875C19.4574 8.86875 20.0008 8.3 20.4317 7.65625C19.8571 7.9125 19.2388 8.08125 18.5892 8.1625C19.2513 7.76875 19.7572 7.1375 20.0008 6.3875C19.3824 6.75625 18.6954 7.01875 17.9647 7.1625C17.3776 6.5375 16.5469 6.15 15.6288 6.15C13.8613 6.15 12.4248 7.5875 12.4248 9.35625C12.4248 9.60625 12.456 9.85 12.506 10.0875C9.84531 9.95625 7.48445 8.675 5.9043 6.7375C5.62949 7.2125 5.47335 7.7625 5.47335 8.35C5.47335 9.4625 6.0417 10.4438 6.89736 11.0188C6.37272 11 5.87931 10.8562 5.44836 10.6187V10.6625C5.44836 12.2125 6.55385 13.5125 8.01533 13.8063C7.74677 13.8813 7.46571 13.9187 7.17217 13.9187C6.96606 13.9187 6.7662 13.9 6.57258 13.8625C6.97855 15.1375 8.16523 16.0625 9.56426 16.0875C8.46502 16.95 7.08473 17.4625 5.58577 17.4625C5.3297 17.4625 5.07362 17.45 4.8238 17.4187C6.23532 18.3188 7.92165 18.85 9.72664 18.85Z" fill="#979797"/>
</svg>
