<svg width="26" height="25" viewBox="0 0 26 25" fill="none" xmlns="http://www.w3.org/2000/svg">
<path fill-rule="evenodd" clip-rule="evenodd" d="M22.0422 0C23.7268 0 25.0945 1.36865 25.0945 3.05439V21.9456C25.0945 23.6313 23.7268 25 22.0422 25H3.16409C1.47952 25 0.111816 23.6313 0.111816 21.9456V3.05439C0.111816 1.36865 1.47947 0 3.16409 0H22.0422V0ZM21.0191 8.57568C20.8172 7.81939 20.222 7.22378 19.4662 7.02168C18.0962 6.6543 12.6031 6.6543 12.6031 6.6543C12.6031 6.6543 7.11013 6.6543 5.74009 7.02168C4.98446 7.22378 4.38917 7.81939 4.18716 8.57568C3.82018 9.94653 3.82018 12.8067 3.82018 12.8067C3.82018 12.8067 3.82018 15.6669 4.18716 17.0376C4.38917 17.7939 4.98446 18.3896 5.74009 18.5917C7.11013 18.959 12.6031 18.959 12.6031 18.959C12.6031 18.959 18.0962 18.959 19.4662 18.5917C20.222 18.3896 20.8172 17.7939 21.0191 17.0376C21.3861 15.6669 21.3861 12.8067 21.3861 12.8067C21.3861 12.8067 21.3861 9.94653 21.0191 8.57568ZM10.8465 15.4435V10.17L15.4102 12.8067L10.8465 15.4435Z" fill="#979797"/>
</svg>
